<mxfile host="app.diagrams.net" modified="2024-04-07T07:06:02.264Z" agent="Mozilla/5.0 (Windows NT 10.0; Win64; x64) AppleWebKit/537.36 (KHTML, like Gecko) Chrome/123.0.0.0 Safari/537.36" etag="AOTYi88Suv9Jdv1xZoHv" version="24.2.2" type="device">
  <diagram name="Seite-1" id="cadCs91HXHujPSRrKrUA">
    <mxGraphModel dx="3267" dy="1332" grid="1" gridSize="10" guides="1" tooltips="1" connect="1" arrows="1" fold="1" page="1" pageScale="1" pageWidth="827" pageHeight="1169" math="0" shadow="0">
      <root>
        <mxCell id="0" />
        <mxCell id="1" parent="0" />
        <mxCell id="VHH9FB-3NXA1LEfDJUij-4" value="Electron.js Renderer" style="text;html=1;align=center;verticalAlign=middle;resizable=0;points=[];autosize=1;strokeColor=none;fillColor=none;labelBackgroundColor=none;fontSize=18;fontStyle=1" vertex="1" parent="1">
          <mxGeometry x="115" y="130" width="190" height="40" as="geometry" />
        </mxCell>
        <mxCell id="VHH9FB-3NXA1LEfDJUij-12" value="" style="swimlane;startSize=0;" vertex="1" parent="1">
          <mxGeometry x="-240" y="170" width="900" height="350" as="geometry" />
        </mxCell>
        <mxCell id="VHH9FB-3NXA1LEfDJUij-5" value="Komponenten&lt;div&gt;&lt;ul&gt;&lt;li&gt;Uhrzeit und Datum&lt;/li&gt;&lt;li style=&quot;text-align: left;&quot;&gt;Live-Video Anzeige&lt;/li&gt;&lt;li style=&quot;text-align: left;&quot;&gt;Laufschrift&lt;/li&gt;&lt;li style=&quot;text-align: left;&quot;&gt;Termin Auflistung&lt;/li&gt;&lt;li style=&quot;text-align: left;&quot;&gt;Termin&lt;/li&gt;&lt;li style=&quot;text-align: left;&quot;&gt;Login&lt;/li&gt;&lt;/ul&gt;&lt;/div&gt;" style="rounded=0;whiteSpace=wrap;html=1;align=left;spacing=40;" vertex="1" parent="VHH9FB-3NXA1LEfDJUij-12">
          <mxGeometry x="262.5" y="20" width="235" height="200" as="geometry" />
        </mxCell>
        <mxCell id="VHH9FB-3NXA1LEfDJUij-14" value="Key-Handler" style="rounded=0;whiteSpace=wrap;html=1;" vertex="1" parent="VHH9FB-3NXA1LEfDJUij-12">
          <mxGeometry x="550" y="90" width="120" height="60" as="geometry" />
        </mxCell>
        <mxCell id="VHH9FB-3NXA1LEfDJUij-33" value="IpcRenderer" style="rounded=0;whiteSpace=wrap;html=1;" vertex="1" parent="VHH9FB-3NXA1LEfDJUij-12">
          <mxGeometry x="90" y="90" width="120" height="60" as="geometry" />
        </mxCell>
        <mxCell id="VHH9FB-3NXA1LEfDJUij-34" value="Ausgabe (.tsx)" style="whiteSpace=wrap;html=1;" vertex="1" parent="VHH9FB-3NXA1LEfDJUij-12">
          <mxGeometry x="235" y="270" width="120" height="60" as="geometry" />
        </mxCell>
        <mxCell id="VHH9FB-3NXA1LEfDJUij-35" value="Styling (CSS)" style="whiteSpace=wrap;html=1;" vertex="1" parent="VHH9FB-3NXA1LEfDJUij-12">
          <mxGeometry x="405" y="270" width="120" height="60" as="geometry" />
        </mxCell>
        <mxCell id="VHH9FB-3NXA1LEfDJUij-36" value="Klasse (.ts)" style="whiteSpace=wrap;html=1;" vertex="1" parent="VHH9FB-3NXA1LEfDJUij-12">
          <mxGeometry x="690" y="170" width="120" height="60" as="geometry" />
        </mxCell>
        <mxCell id="VHH9FB-3NXA1LEfDJUij-41" value="" style="endArrow=classic;html=1;rounded=0;entryX=0;entryY=0.5;entryDx=0;entryDy=0;exitX=0.5;exitY=1;exitDx=0;exitDy=0;" edge="1" parent="VHH9FB-3NXA1LEfDJUij-12" source="VHH9FB-3NXA1LEfDJUij-14" target="VHH9FB-3NXA1LEfDJUij-36">
          <mxGeometry width="50" height="50" relative="1" as="geometry">
            <mxPoint x="480" y="138.61" as="sourcePoint" />
            <mxPoint x="530" y="88.61" as="targetPoint" />
            <Array as="points">
              <mxPoint x="610" y="198.61" />
            </Array>
          </mxGeometry>
        </mxCell>
        <mxCell id="VHH9FB-3NXA1LEfDJUij-42" value="" style="endArrow=classic;html=1;rounded=0;entryX=0;entryY=0.5;entryDx=0;entryDy=0;exitX=1;exitY=0.5;exitDx=0;exitDy=0;" edge="1" parent="VHH9FB-3NXA1LEfDJUij-12" source="VHH9FB-3NXA1LEfDJUij-5" target="VHH9FB-3NXA1LEfDJUij-14">
          <mxGeometry width="50" height="50" relative="1" as="geometry">
            <mxPoint x="480" y="218.61" as="sourcePoint" />
            <mxPoint x="530" y="168.61" as="targetPoint" />
          </mxGeometry>
        </mxCell>
        <mxCell id="VHH9FB-3NXA1LEfDJUij-43" value="" style="endArrow=classic;html=1;rounded=0;exitX=0.5;exitY=1;exitDx=0;exitDy=0;entryX=0.5;entryY=0;entryDx=0;entryDy=0;" edge="1" parent="VHH9FB-3NXA1LEfDJUij-12" source="VHH9FB-3NXA1LEfDJUij-5" target="VHH9FB-3NXA1LEfDJUij-35">
          <mxGeometry width="50" height="50" relative="1" as="geometry">
            <mxPoint x="480" y="218.61" as="sourcePoint" />
            <mxPoint x="530" y="168.61" as="targetPoint" />
            <Array as="points">
              <mxPoint x="380" y="238.61" />
              <mxPoint x="465" y="238.61" />
            </Array>
          </mxGeometry>
        </mxCell>
        <mxCell id="VHH9FB-3NXA1LEfDJUij-44" value="" style="endArrow=classic;html=1;rounded=0;entryX=0.5;entryY=0;entryDx=0;entryDy=0;exitX=0.5;exitY=1;exitDx=0;exitDy=0;" edge="1" parent="VHH9FB-3NXA1LEfDJUij-12" source="VHH9FB-3NXA1LEfDJUij-5" target="VHH9FB-3NXA1LEfDJUij-34">
          <mxGeometry width="50" height="50" relative="1" as="geometry">
            <mxPoint x="480" y="218.61" as="sourcePoint" />
            <mxPoint x="530" y="168.61" as="targetPoint" />
            <Array as="points">
              <mxPoint x="380" y="238.61" />
              <mxPoint x="295" y="238.61" />
            </Array>
          </mxGeometry>
        </mxCell>
        <mxCell id="VHH9FB-3NXA1LEfDJUij-45" value="" style="endArrow=classic;html=1;rounded=0;entryX=1;entryY=0.5;entryDx=0;entryDy=0;exitX=0;exitY=0.5;exitDx=0;exitDy=0;startArrow=classic;startFill=1;" edge="1" parent="VHH9FB-3NXA1LEfDJUij-12" source="VHH9FB-3NXA1LEfDJUij-5" target="VHH9FB-3NXA1LEfDJUij-33">
          <mxGeometry width="50" height="50" relative="1" as="geometry">
            <mxPoint x="280" y="208.61" as="sourcePoint" />
            <mxPoint x="330" y="158.61" as="targetPoint" />
          </mxGeometry>
        </mxCell>
        <mxCell id="VHH9FB-3NXA1LEfDJUij-15" value="Electron.js Main" style="text;html=1;align=center;verticalAlign=middle;resizable=0;points=[];autosize=1;strokeColor=none;fillColor=none;labelBackgroundColor=none;fontSize=18;fontStyle=1" vertex="1" parent="1">
          <mxGeometry x="-25" y="550" width="150" height="40" as="geometry" />
        </mxCell>
        <mxCell id="VHH9FB-3NXA1LEfDJUij-16" value="" style="swimlane;startSize=0;" vertex="1" parent="1">
          <mxGeometry x="-240" y="590" width="580" height="440" as="geometry">
            <mxRectangle x="-240" y="615" width="50" height="40" as="alternateBounds" />
          </mxGeometry>
        </mxCell>
        <mxCell id="VHH9FB-3NXA1LEfDJUij-21" value="Main" style="rounded=0;whiteSpace=wrap;html=1;" vertex="1" parent="VHH9FB-3NXA1LEfDJUij-16">
          <mxGeometry x="90" y="181.25" width="120" height="60" as="geometry" />
        </mxCell>
        <mxCell id="VHH9FB-3NXA1LEfDJUij-22" value="Helper&lt;div&gt;&lt;ul&gt;&lt;li&gt;WIndow&lt;/li&gt;&lt;li&gt;Store&lt;/li&gt;&lt;li&gt;Utils&lt;/li&gt;&lt;/ul&gt;&lt;/div&gt;" style="rounded=0;whiteSpace=wrap;html=1;align=left;spacingLeft=20;spacingBottom=20;spacingRight=20;spacingTop=20;spacing=20;" vertex="1" parent="VHH9FB-3NXA1LEfDJUij-16">
          <mxGeometry x="307.93" y="28.75" width="204.14" height="165" as="geometry" />
        </mxCell>
        <mxCell id="VHH9FB-3NXA1LEfDJUij-37" value="IpcMain" style="whiteSpace=wrap;html=1;" vertex="1" parent="VHH9FB-3NXA1LEfDJUij-16">
          <mxGeometry x="90" y="81.25" width="120" height="60" as="geometry" />
        </mxCell>
        <mxCell id="VHH9FB-3NXA1LEfDJUij-48" value="" style="endArrow=classic;startArrow=classic;html=1;rounded=0;exitX=0.5;exitY=0;exitDx=0;exitDy=0;entryX=0.5;entryY=1;entryDx=0;entryDy=0;" edge="1" parent="VHH9FB-3NXA1LEfDJUij-16" source="VHH9FB-3NXA1LEfDJUij-21" target="VHH9FB-3NXA1LEfDJUij-37">
          <mxGeometry width="50" height="50" relative="1" as="geometry">
            <mxPoint x="300" y="11.25" as="sourcePoint" />
            <mxPoint x="350" y="-38.75" as="targetPoint" />
          </mxGeometry>
        </mxCell>
        <mxCell id="VHH9FB-3NXA1LEfDJUij-49" value="" style="endArrow=classic;html=1;rounded=0;exitX=1;exitY=0.25;exitDx=0;exitDy=0;entryX=0;entryY=0.5;entryDx=0;entryDy=0;" edge="1" parent="VHH9FB-3NXA1LEfDJUij-16" source="VHH9FB-3NXA1LEfDJUij-21" target="VHH9FB-3NXA1LEfDJUij-22">
          <mxGeometry width="50" height="50" relative="1" as="geometry">
            <mxPoint x="340" y="171.25" as="sourcePoint" />
            <mxPoint x="390" y="121.25" as="targetPoint" />
            <Array as="points">
              <mxPoint x="260" y="196.25" />
              <mxPoint x="260" y="111.25" />
            </Array>
          </mxGeometry>
        </mxCell>
        <mxCell id="VHH9FB-3NXA1LEfDJUij-50" value="" style="endArrow=classic;html=1;rounded=0;exitX=1;exitY=0.75;exitDx=0;exitDy=0;entryX=0;entryY=0.5;entryDx=0;entryDy=0;" edge="1" parent="VHH9FB-3NXA1LEfDJUij-16" source="VHH9FB-3NXA1LEfDJUij-21" target="VHH9FB-3NXA1LEfDJUij-51">
          <mxGeometry width="50" height="50" relative="1" as="geometry">
            <mxPoint x="340" y="271.25" as="sourcePoint" />
            <mxPoint x="350" y="268.75" as="targetPoint" />
            <Array as="points">
              <mxPoint x="280" y="226.25" />
              <mxPoint x="280" y="271.25" />
            </Array>
          </mxGeometry>
        </mxCell>
        <mxCell id="VHH9FB-3NXA1LEfDJUij-51" value="Authentication" style="rounded=0;whiteSpace=wrap;html=1;" vertex="1" parent="VHH9FB-3NXA1LEfDJUij-16">
          <mxGeometry x="349.99999999999994" y="241.25" width="120" height="60" as="geometry" />
        </mxCell>
        <mxCell id="VHH9FB-3NXA1LEfDJUij-52" value="MS Graph" style="rounded=0;whiteSpace=wrap;html=1;" vertex="1" parent="VHH9FB-3NXA1LEfDJUij-16">
          <mxGeometry x="349.99999999999994" y="351.25" width="120" height="60" as="geometry" />
        </mxCell>
        <mxCell id="VHH9FB-3NXA1LEfDJUij-54" value="" style="endArrow=classic;html=1;rounded=0;exitX=1;exitY=0.75;exitDx=0;exitDy=0;entryX=0;entryY=0.5;entryDx=0;entryDy=0;" edge="1" parent="VHH9FB-3NXA1LEfDJUij-16" source="VHH9FB-3NXA1LEfDJUij-21" target="VHH9FB-3NXA1LEfDJUij-52">
          <mxGeometry width="50" height="50" relative="1" as="geometry">
            <mxPoint x="340" y="321.25" as="sourcePoint" />
            <mxPoint x="390" y="271.25" as="targetPoint" />
            <Array as="points">
              <mxPoint x="280" y="226.25" />
              <mxPoint x="280" y="381.25" />
            </Array>
          </mxGeometry>
        </mxCell>
        <mxCell id="VHH9FB-3NXA1LEfDJUij-26" value="" style="swimlane;startSize=0;" vertex="1" parent="1">
          <mxGeometry x="369.8" y="590" width="290.2" height="365" as="geometry" />
        </mxCell>
        <mxCell id="VHH9FB-3NXA1LEfDJUij-27" value="MS Graph API" style="rounded=0;whiteSpace=wrap;html=1;" vertex="1" parent="VHH9FB-3NXA1LEfDJUij-26">
          <mxGeometry x="85.1" y="230" width="120" height="60" as="geometry" />
        </mxCell>
        <mxCell id="VHH9FB-3NXA1LEfDJUij-28" value="MS Azure AD" style="rounded=0;whiteSpace=wrap;html=1;" vertex="1" parent="VHH9FB-3NXA1LEfDJUij-26">
          <mxGeometry x="85.1" y="80" width="120" height="60" as="geometry" />
        </mxCell>
        <mxCell id="VHH9FB-3NXA1LEfDJUij-30" value="Microsoft" style="text;html=1;align=center;verticalAlign=middle;resizable=0;points=[];autosize=1;strokeColor=none;fillColor=none;labelBackgroundColor=none;fontSize=18;fontStyle=1" vertex="1" parent="1">
          <mxGeometry x="464.90000000000003" y="550" width="100" height="40" as="geometry" />
        </mxCell>
        <mxCell id="VHH9FB-3NXA1LEfDJUij-46" value="" style="endArrow=classic;startArrow=none;html=1;rounded=0;entryX=0.75;entryY=1;entryDx=0;entryDy=0;exitX=0.75;exitY=0;exitDx=0;exitDy=0;startFill=0;" edge="1" parent="1" source="VHH9FB-3NXA1LEfDJUij-37" target="VHH9FB-3NXA1LEfDJUij-33">
          <mxGeometry width="50" height="50" relative="1" as="geometry">
            <mxPoint x="40" y="510" as="sourcePoint" />
            <mxPoint x="90" y="460" as="targetPoint" />
          </mxGeometry>
        </mxCell>
        <mxCell id="VHH9FB-3NXA1LEfDJUij-55" value="" style="endArrow=classic;html=1;rounded=0;entryX=0;entryY=0.5;entryDx=0;entryDy=0;exitX=1;exitY=0.5;exitDx=0;exitDy=0;startArrow=classic;startFill=1;" edge="1" parent="1" source="VHH9FB-3NXA1LEfDJUij-51" target="VHH9FB-3NXA1LEfDJUij-28">
          <mxGeometry width="50" height="50" relative="1" as="geometry">
            <mxPoint x="240" y="790" as="sourcePoint" />
            <mxPoint x="290" y="740" as="targetPoint" />
            <Array as="points">
              <mxPoint x="350" y="861" />
              <mxPoint x="350" y="700" />
            </Array>
          </mxGeometry>
        </mxCell>
        <mxCell id="VHH9FB-3NXA1LEfDJUij-56" value="" style="endArrow=classic;html=1;rounded=0;entryX=0;entryY=0.5;entryDx=0;entryDy=0;exitX=1;exitY=0.5;exitDx=0;exitDy=0;startArrow=classic;startFill=1;" edge="1" parent="1" source="VHH9FB-3NXA1LEfDJUij-52" target="VHH9FB-3NXA1LEfDJUij-27">
          <mxGeometry width="50" height="50" relative="1" as="geometry">
            <mxPoint x="260" y="850" as="sourcePoint" />
            <mxPoint x="310" y="800" as="targetPoint" />
            <Array as="points">
              <mxPoint x="360" y="971" />
              <mxPoint x="360" y="850" />
            </Array>
          </mxGeometry>
        </mxCell>
        <mxCell id="VHH9FB-3NXA1LEfDJUij-47" value="" style="endArrow=none;startArrow=classic;html=1;rounded=0;entryX=0.25;entryY=1;entryDx=0;entryDy=0;exitX=0.25;exitY=0;exitDx=0;exitDy=0;endFill=0;" edge="1" parent="1" source="VHH9FB-3NXA1LEfDJUij-37" target="VHH9FB-3NXA1LEfDJUij-33">
          <mxGeometry width="50" height="50" relative="1" as="geometry">
            <mxPoint x="-120" y="719" as="sourcePoint" />
            <mxPoint x="-120" y="310" as="targetPoint" />
          </mxGeometry>
        </mxCell>
      </root>
    </mxGraphModel>
  </diagram>
</mxfile>
